# xmcd
#
# Track frame offsets:
# 150
# 16092
# 32173
# 46364
# 62587
# 75444
# 91125
# 107270
# 121572
# 138749
# 158029
# 176058
# 189708
#
# Disc length: 2681 seconds
#
#
# Revision: 0
# Processed by: cddbd v1.5.2PL0 Copyright (c) Steve Scherf et al.
# Submitted via: FreeRIP 2.945 
#
DISCID=970a770d
DTITLE=Thomas Hendley - Road Tunes and Regrets
DYEAR=2009
DGENRE=Country
TTITLE0=Shotgun
TTITLE1=Bermuda Sunrise
TTITLE2=Living this Small Town Life
TTITLE3=It's Won't Rain
TTITLE4=God Speaks
TTITLE5=Back In The Day
TTITLE6=October Comes Around
TTITLE7=2000 Miles Ago
TTITLE8=Say A Prayer For Me
TTITLE9=The Holy Heist
TTITLE10=Much Too Late To Go Home
TTITLE11=This December Night
TTITLE12=Long Way To Go
EXTD=
EXTT0=
EXTT1=
EXTT2=
EXTT3=
EXTT4=
EXTT5=
EXTT6=
EXTT7=
EXTT8=
EXTT9=
EXTT10=
EXTT11=
EXTT12=
PLAYORDER=
